<svg width="40" height="40" viewBox="0 0 40 40" xmlns="http://www.w3.org/2000/svg" role="img" aria-label="LinguaVerse logo">
  <defs>
    <linearGradient id="bubbleA" x1="0%" y1="0%" x2="100%" y2="100%">
      <stop offset="0%" stop-color="#4F46E5"/>
      <stop offset="100%" stop-color="#7C6CF6"/>
    </linearGradient>
    <linearGradient id="bubbleB" x1="100%" y1="0%" x2="0%" y2="100%">
      <stop offset="0%" stop-color="#14B8A6"/>
      <stop offset="100%" stop-color="#2DD4BF"/>
    </linearGradient>
  </defs>
  <!-- left speech bubble -->
  <path d="M18 6C10.8 6 5 11.2 5 17.6c0 3.5 1.8 6.7 4.7 8.8-.2 2-1 3.7-2.4 5.1 2.6-.3 4.9-1.3 6.8-2.8 1.2.3 2.5.5 3.9.5 7.2 0 13-5.2 13-11.6S25.2 6 18 6z" fill="url(#bubbleA)" opacity="0.92"/>
  <!-- right speech bubble -->
  <path d="M24 12c6.6 0 12 4.7 12 10.5 0 3.1-1.6 5.9-4.1 7.8.2 1.8.9 3.3 2.1 4.5-2.3-.3-4.4-1.1-6.1-2.4-1.1.3-2.3.4-3.5.4-6.6 0-12-4.7-12-10.5S17.4 12 24 12z" fill="url(#bubbleB)" opacity="0.85"/>
  <circle cx="18" cy="18" r="1.6" fill="#fff"/>
  <circle cx="24" cy="23" r="1.6" fill="#fff"/>
</svg>
